<?xml version="1.0" encoding="utf-8"?>
<!-- Generator: Adobe Illustrator 24.2.0, SVG Export Plug-In . SVG Version: 6.00 Build 0)  -->
<svg version="1.1" id="Layer_1" xmlns="http://www.w3.org/2000/svg" xmlns:xlink="http://www.w3.org/1999/xlink" x="0px" y="0px"
	 viewBox="0 0 900 972" enable-background="new 0 0 900 972" xml:space="preserve">
<g>
	<g>
		<g>
			<path fill="#FAF904" d="M489.348,7.33c5.78,0.2,11.64-0.05,17.32,1.27c3.19,0.81,6.48,1.02,9.77,1.04
				c0.31,0.42,12.2,2.28,17.53,3.6c10.6,0.73,20.6,4.83,31.06,6.38c0.12,0.41,0.36,1.22,0.48,1.63c7.14-0.77,13.17,3.62,20.03,4.52
				c0.37,0.37,1.12,1.13,1.49,1.5c0.79,0.03,2.37,0.08,3.16,0.11c0.38,0.1,1.14,0.3,1.52,0.41c0.5,0.32,1.52,0.96,2.02,1.28
				c7.09,0.93,13.05,5.3,19.93,6.87l0.35,0.16c1.29,0.71,2.6,1.39,3.95,1.99c0.53,0.2,1.58,0.6,2.1,0.8
				c4.34,0.89,7.72,3.96,11.92,5.2c0.55,0.25,1.67,0.74,2.23,0.98c0.94,0.27,1.88,0.53,2.84,0.79c0.42,0.34,1.25,1.01,1.67,1.35
				c0.56,0.21,1.68,0.65,2.23,0.87c0.52,0.24,1.56,0.73,2.08,0.97c1.72,0.57,3.47,1.06,5.23,1.5c3.45,2.58,7.31,4.52,11.12,6.52
				c3.47,1.72,6.64,4.02,10.32,5.32c2.8,1.76,5.66,3.49,8.94,4.24c2.76,2.62,5.85,4.88,9.16,6.78c1.37,0.89,2.72,1.81,4.08,2.72
				c8.41,5.25,16.79,10.58,24.5,16.83c0.52,0.23,1.57,0.68,2.09,0.91c2.81,2.43,5.62,4.85,8.5,7.2c5.6,4.8,11.37,9.42,17.48,13.55
				c1.96,3.09,4.98,5.23,7.7,7.59c0.2,0.2,0.6,0.59,0.8,0.79c2.01,2.16,4.05,4.35,6.64,5.82c3.51,4.03,7.13,7.98,11.16,11.51
				c3.53,3.39,6.82,7.01,10.05,10.69c2.97,3.56,6.21,6.88,9.11,10.49c0.44,0.23,1.31,0.67,1.75,0.89
				c3.59,6.81,9.06,12.3,13.97,18.14l0.47,0.56c5.24,8.25,11.16,16.01,16.81,23.96c0.86,2.16,2.09,4.15,3.81,5.74
				c11.11,19.55,22.72,38.96,31.18,59.85c2.9,5.28,4.5,11.14,7,16.62c4.89,11.68,8.54,23.8,12.08,35.95c0.8,3.41,1.31,7.07,3.58,9.9
				c0.33,8.3,3.37,16.19,5.07,24.27c2.1,10.87,3.62,21.84,5.36,32.77c0.58,4.41,0.11,8.92,0.94,13.31
				c1.41,5.83,1.36,65.51,1.22,67.42c-1.47,17.49-3.81,34.91-6.77,52.21c-1.04,3.73-0.88,7.86-3,11.23
				c-0.1,5.38-1.65,10.53-3.17,15.64c-0.17,0.6-0.3,1.21-0.37,1.84c-1.5,7.9-3.71,15.7-6.83,23.12c-1.36,3.45-1.4,7.32-3.28,10.57
				c-7.11,19.53-15.04,38.81-24.99,57.1c-3.61,6.44-6.32,13.48-11.1,19.19c-2.87,5.39-6.29,10.49-8.76,16.09
				c-0.6,1.45-1.83,2.46-2.93,3.51c-9.53,15.42-21.29,29.21-32.49,43.41c-0.44,0.18-1.34,0.54-1.78,0.73
				c-0.56,1.34-1.1,2.7-1.66,4.05c1.15,2.76,2.47,5.45,3.69,8.19c0.57,0.17,1.71,0.53,2.27,0.7c2.15,8.72,8.12,15.69,11.79,23.74
				c3.43,4.67,5.38,10.19,8.83,14.83c2.99,7.81,8.34,14.43,11.47,22.19c0.3,3.51-0.72,7.1-2.18,10.29
				c-2.88,6.09-4.59,12.62-7.24,18.81c-2.8,6.5-4.37,13.44-6.93,20.03c-4.28,10.38-7.93,21.01-11.45,31.67
				c-3.77,11.12-8.93,21.82-11.36,33.36c-2.72,4.76-3.97,10.16-6.18,15.15c-1.91,4.03-2.37,8.54-4.16,12.62
				c-2.32,5.53-3.76,11.4-6.23,16.87c-0.61,1.77-2.72,1.78-4.17,1.24c-5.09-1.27-10.12-2.92-14.79-5.32
				c-3.22-1.72-7.06-1.13-10.38-2.4c-5.05-3.12-11.04-3.9-16.63-5.6c-8.13-2.57-16.48-4.31-24.57-7
				c-5.79-2.17-12.18-1.79-17.88-4.27c-3.8-1.98-8.19-1.34-12.17-2.64c-4.64-1.36-9.5-1.43-14.21-2.35l-0.46-0.13
				c-5.77-2.23-12.09-2.06-17.89-4.07c-7.57-0.84-15.25-1.73-22.52-3.98c-9.53-0.52-18.97-1.9-28.41-3.23
				c-7.88-1.75-16.06-0.98-23.99-2.4c-9.35-1.62-19.04-0.13-28.25-2.61c-14.67,0.17-29.33-0.81-44-0.72
				c-16.82,0.03-33.66-0.24-50.46,0.42c-6.2,0.94-12.64-0.69-18.68,1.24c-8.66-0.01-17.26,1.12-25.91,1.08
				c-1.75-0.02-3.45,0.39-5.11,0.88c-6.7,0.56-13.49,0.5-20.03,2.28c-3.97,0.21-7.98,0.32-11.82,1.44
				c-5.96,0.94-12.05,0.28-18.01,1.29c-8,1.49-16.16,1.83-24.08,3.77c-6.43,0.06-12.55,2.21-18.95,2.5
				c-1.06,0.17-2.08,0.5-3.05,0.99c-9.94,1.52-19.73,3.83-29.66,5.31c-8.26,2.66-16.97,3.39-25.27,5.87
				c-3.97,1.28-8.2,1.39-12.17,2.68c-4.53,1.3-9.06,2.67-13.74,3.39l-1.16,0.58c-13.37,3.44-27.05,6.23-39.74,11.79
				c-5.06,0.42-9.77,2.39-14.59,3.83c-2.63,0.89-5.43,1.47-7.72,3.14c-4.39-7.19-5.73-15.68-9.59-23.12
				c-2.59-5.44-4.06-11.29-6.11-16.92c-8.05-21.89-16.26-43.76-24.23-65.68c-2.53-6.63-5.43-13.15-7.06-20.08
				c-4.53-9.14-7.57-18.9-10.96-28.49c-0.71-2.39,0-4.76,1.01-6.92c0.12-1.02,0.25-2.02,0.37-3c0.41-0.33,1.23-0.99,1.64-1.32
				c3.98-9.31,8.1-18.54,12.9-27.46c0.22-0.99,0.44-1.97,0.66-2.94c0.78-1.34,1.52-2.69,2.17-4.09c0.19-0.41,0.56-1.21,0.75-1.62
				c3.31-6.78,6.53-13.64,9.12-20.74c0.68-0.75,1.36-1.48,2.05-2.21c-0.28-2.82-1.31-5.53-3.39-7.5c-3.33-3.36-5.72-7.55-9.35-10.62
				c-0.54-0.79-1.1-1.57-1.65-2.34c-2.24-2.01-4.25-4.24-6.23-6.49c-4.69-6.97-9.29-14.06-14.94-20.29l-0.34-0.39
				c-0.24-0.33-0.72-0.98-0.95-1.31c-2.28-4.59-5.35-8.72-8.55-12.69c-1.18-1.72-2.33-3.46-3.43-5.23
				c-1.27-2.42-2.28-5.04-4.19-7.05c-2.3-2.4-3.13-5.72-4.66-8.58c-1.81-3.38-3.73-6.7-5.75-9.95l-0.32-0.57
				c-4.17-8.5-8.77-16.75-12.61-25.41c-0.49-1.33-0.85-2.7-1.23-4.05c-0.34-0.36-1.01-1.08-1.35-1.43c-0.15-0.58-0.43-1.73-0.57-2.3
				c-5.27-10.24-9.27-21.14-12.21-32.27c-0.27-0.34-0.82-1.02-1.1-1.35c-1.34-3.83-2.56-7.7-3.87-11.53
				c-6.06-22.41-12.03-44.97-14.54-68.12c0.07-5.06-2.02-9.81-2.06-14.85c-0.1-3.14,0.12-6.28-0.15-9.41
				c-0.54-0.12-0.48-68.4,0.07-68.42c-0.53-8.57,1.83-16.87,2.31-25.37c0.38-3.29,1.61-6.45,1.68-9.78
				c0.07-6.99,2.55-13.63,3.77-20.45c2.35-12.38,5.72-24.5,9.3-36.57c0.75-2.38,1.57-4.74,2.59-7.02c1.29-4.83,2.81-9.62,4.96-14.15
				c2.37-5.96,3.76-12.39,7.25-17.87c0.17-1.44,0.34-2.88,0.54-4.31c3.07-3.59,3.9-8.38,5.93-12.54c1.33-3.33,3.42-6.26,5.12-9.4
				c0.38-1.23,0.71-2.47,1.06-3.7c1.46-1,2.13-2.6,2.78-4.16c2.55-4.98,5.01-10.04,8.2-14.66c1.63-3.38,3.47-6.66,5.17-10.01
				c0.28-0.34,0.84-1.03,1.12-1.37c1.47-2.8,3.07-5.55,5.11-7.98c2.52-3.3,4.51-6.98,7.35-10.03c0.32-1.3,0.65-2.6,0.99-3.9
				c3.54-2.45,5.67-6.29,7.82-9.91c9.15-12.01,18.76-23.65,28.68-35.02c5.25-5.15,10.37-10.45,15.12-16.07
				c5.31-4.25,10.16-9.04,15.02-13.78c4.57-4.2,10.16-7.29,14.02-12.25c0.56-0.2,1.67-0.59,2.22-0.79c0.85-1.03,1.7-2.07,2.61-3.06
				c6.26-4.5,19.76-14.65,20.26-14.84c2.55-2.18,9.91-7.56,11.15-7.95c4.21-3.22,14.46-9.78,14.99-9.93
				c4.16-2.53,8.39-4.95,12.6-7.39c1.05-0.66,2.1-1.32,3.14-1.98c4.02-2.16,7.97-4.45,12.22-6.14c1.36-0.66,7.03-3.66,7.39-4.05
				c4.1-2.19,8.6-3.62,12.49-6.21c0.48-0.09,10.86-5.09,15.73-6.41c5.89-1.62,20.31-7.89,22.13-8.34c2.36-1,4.75-1.92,7.09-3
				c1.3-0.28,2.61-0.55,3.92-0.83c2.21-1.08,4.6-1.67,6.99-2.25l0.58-0.16c2.87-0.86,6.09-0.65,8.57-2.59
				c6.07-1.24,11.82-3.75,17.95-4.72c2.71-0.43,5.29-1.4,7.97-1.97c1.2-0.11,8.98-1.77,11.64-2.56c4.41-1.21,9.04-1.14,13.44-2.37
				c5.15-1.3,29.27-2.72,35.99-3.12C414.218,6.77,489.318,6.77,489.348,7.33z M402.118,24.23c-70.86,7.46-139.65,33.19-198.21,73.74
				c-59.52,41.22-108.61,97.63-140.14,162.87c-34.45,69.97-47.96,149.9-39.32,227.36c4.56,41.64,15.43,82.63,32.35,120.96
				c29.7,68.07,78.13,127.61,137.99,171.46c9.83-2.34,19.81-4.02,29.74-5.9c24.11-4.15,48.26-8.15,72.56-11.07
				c25.49-3.13,51.03-6.32,76.7-7.57c-0.7-9.64-1.04-19.3-0.99-28.96c-0.01-24.36-0.1-48.72,0.46-73.07
				c-8.94,0.58-17.69,2.89-25.91,6.4c-19.38,8.06-37.09,19.55-54.27,31.5c-12.88,9.38-25.6,19.01-37.71,29.37
				c-8.33,7.72-16.29,15.93-25.55,22.57c-2.63,1.68-5.8,4.13-9.03,2.48c-5.99-2.42-12.64-5.44-15.92-11.3
				c0.21-8.59,3.58-16.77,6.29-24.84c2.19-5.99,4.06-12.14,7.28-17.68c10.26-18.11,22.78-34.88,36.63-50.38
				c10.88-11.76,22.17-23.37,35.53-32.33c2.28-1.41,4.08-3.43,5.18-5.87c-1.89-0.5-3.78-1.24-5.76-1.17
				c-11.87,0.93-23.55,3.43-35.07,6.37c-33.61,8.88-65.12,24.55-93.94,43.83c-3.77,2.33-7.48,5.24-11.95,6.01
				c-3.27-1.52-5.41-4.62-8.06-6.97c-2.53-2.63-5.79-5.12-6.57-8.88c4.95-12.67,12.65-24.13,20.72-35.04
				c2.99-4.2,6.47-8.06,9.03-12.56c-17.38,2.84-34.79,5.55-52.16,8.43c-3.24,0.28-7.92,1.32-9.71-2.26
				c-2.88-4.75-6.15-9.42-7.8-14.76c-1.1-3.21,2.22-5.27,3.99-7.38c11.74-12.66,24.76-24.1,38.6-34.41
				c10.9-8.06,22.29-15.55,34.53-21.43c7.39-3.42,15.09-6.83,23.39-6.87c23.54-0.71,47.07,2.59,69.93,8.05
				c21.61,4.94,42.68,11.93,63.41,19.72c16.77,6.52,33.37,13.49,49.42,21.62c1.65-45.78,9.94-90.93,16.26-136.22
				c1.22-8.08,2.3-16.26,5.01-24.01c1.13-2.95,2.3-6.16,4.92-8.12c1.27-1.15,2.79,0.36,4.14,0.6c2.54-18.72,5.81-37.33,9.27-55.91
				c3.93-20.58,7.47-41.28,13.09-61.48c1.73-5.5,3.1-11.35,6.6-16.04c1.37-1.9,3.71-1.06,5.53-0.46
				c8.49-30.04,16.55-60.22,25.84-90.02c2.64-7.3,4.58-15.47,10.62-20.83c0.53-0.09,1.59-0.28,2.12-0.38
				c6.77-11.23,13.48-22.51,20.63-33.52c6.83-10.2,12.59-21.17,20.26-30.79c3.96,3.44,6.78,7.91,9.79,12.16
				c9.3,14.01,17.35,28.8,25.41,43.55c9.34,17.93,18.93,35.78,26.99,54.32c2.21-0.26,4.76-1.5,6.79-0.06
				c1.86,1.58,2.97,3.82,4.22,5.88c-4.22,1.25-5.99,5.66-9.01,8.45c-7.17,7.13-14.8,13.79-21.65,21.24c-1.9,1.7-3.77,4.43-6.67,3.92
				c-1.17-0.54-1.98-1.57-2.79-2.52c-6.04-7.57-12.45-14.86-19.08-21.92c-12.51-13.51-25.39-26.75-39.45-38.65
				c-4.85-4.14-10.23-7.68-14.67-12.28c-1.52-1.46-1.66-3.68-2.3-5.56c-2.7,3-3.17,7.12-4.06,10.89c-1,3.58,2.15,6.36,4.61,8.4
				c13.96,10.93,27.97,21.9,40.54,34.45c10.47,10.09,18.6,22.21,27.31,33.76c2.66,4.96-2.32,9.36-5.15,12.93
				c-12.59,16.58-24.55,33.65-35.63,51.28c-2.18,3.17-3.62,7.24-7.18,9.16c-3.36-0.47-5.62-3.3-8.11-5.32
				c-8.31-7.16-17.33-13.43-26.25-19.79c-7.12-5.23-15.35-9.03-21.34-15.69c-2.73-2.36-3.46-6.05-5.53-8.88
				c-1.67,5.63-3.58,11.38-4.24,17.18c2.64,3.94,6.98,6.19,10.77,8.85c22.73,14.37,44.44,30.42,64.39,48.46
				c19.37,19.27,38.16,39.14,56.11,59.75c1.62,2.29,4.93,4.85,3.32,7.97c-1.78,3.99-4.91,7.16-7.58,10.55
				c-19.55,23.44-38.84,47.27-54.8,73.35c-0.77,1-1.51,2.15-2.76,2.58c-3.95-1.07-6.09-4.92-8.99-7.49
				c-22.22-21.84-44.84-43.45-69.73-62.26c-7.86-6.65-17.13-12.86-20.57-23.09c-2.24,4.44-2.05,9.54-2.69,14.36
				c-0.13,2.97-0.97,6.06-0.17,9c1.53,2.44,3.95,4.13,6.19,5.88c10.23,7.35,19.81,15.53,29.51,23.56
				c24.27,20.6,48.22,41.74,69.59,65.4c16.5,17.91,32.4,36.36,48.07,55.01c10.39,12.82,21.36,25.24,30.56,38.97
				c3.65-2.47,7.34-4.9,10.89-7.53c-26.62-33.76-52.58-68.23-82.54-99.15c7.43-10.65,14.07-21.82,21.43-32.52
				c13.17-19.66,26.93-38.93,41.53-57.55c19.68-25,40.67-49.29,65.33-69.54c3.26-2.92,7.29-4.89,10.23-8.18
				c21.38,66.79,33.73,136.13,41.96,205.67c10.56-3.31,21.27-6.34,32.27-7.82c24.38-3.87,49.7-1.29,72.88,7.16
				c19.48,6.36,38.9,12.89,58.2,19.75c13.12-41.98,19.73-86.06,18.87-130.06c-0.58-80.68-25.94-160.89-71.34-227.55
				c-38.56-57.37-91.63-104.72-152.55-137.27C576.798,31.32,488.028,14.52,402.118,24.23z M182.678,534.59
				c-13.86,7.09-27.1,15.39-39.69,24.56c-12.56,9.47-24.81,19.55-35.21,31.43c23.38-2.9,46.71-6.12,70.08-9.08
				c3.89-0.55,8.18-0.55,11.4-3.14c7.7-5.67,15.41-11.33,23.13-16.98c2.71-2.05,6.46-3.16,9.66-1.53c2.65,0.92,3.84,3.6,5.06,5.9
				c-3.79,2.72-7.56,5.47-11.48,8c-15.17,9.75-28.95,21.62-41,35.02c-10.01,11.36-19.23,23.63-25.47,37.5
				c13.25-10.21,28.75-16.8,43.4-24.7c13.29-7.19,26.97-13.74,41.24-18.77c21.8-8.02,44.99-12.21,68.21-12.35
				c8.33-0.03,16.73-0.6,25,0.68c2.41,0.26,4.45,1.64,6.25,3.18c-1.76,4.71-6.54,6.91-10.14,10
				c-29.61,22.93-58.11,48.35-78.93,79.78c-10.82,16.09-18.2,34.23-23.01,52.96c18.28-16.12,37.73-30.84,56.85-45.94
				c14.4-11.04,28.26-23,44.29-31.69c18.04-10.12,38.1-16.92,58.78-18.54c21.1-1.54,42.7,1.48,62.16,9.95
				c28.28,12.19,51.9,33.06,71.72,56.28c12.05,14.37,23.18,29.61,32.29,46.03c8.93,0.51,17.88,0.87,26.81,1.51
				c-7.92-16.56-18.54-31.67-29.16-46.59c-1.53-2.29-3.16-5.53-0.79-7.86c7.09-8.23,15.03-15.72,23.33-22.73
				c16.21-13.59,33.23-26.21,50.61-38.25c2.56-1.92,5.66-3.08,8.89-2.92c11.27,0.11,21.93,4.27,32.6,7.45
				c15.35,4.67,30.1,11.09,44.49,18.14c27.66,13.68,54.06,29.79,79.51,47.22c11.46-13.82,20.83-29.17,30.66-44.14
				c-15.24-14.11-34.16-23.44-53.53-30.47c-19.97-7.26-40.74-12.13-61.63-15.92c-2.61-0.46-5.09-1.44-7.38-2.75
				c1.53-1.98,3.58-3.48,6.08-3.94c14.51-3.64,29.34-5.95,44.22-7.5c16.02-1.74,32.2-0.54,48.1,1.85
				c17.21,2.65,34.23,6.55,50.86,11.72c5.65-13.72,11.16-27.48,16.79-41.2c-9.27-4.98-19.46-7.83-29.48-10.89
				c-17.68-4.9-35.58-9.09-53.67-12.22c-20.74-3.23-42.01-2.72-62.69,0.68c-8.42,1.12-15.72,5.72-23.07,9.62
				c-9.71,5.59-19.74,10.63-29.18,16.67c-12.7,7.78-24.88,16.37-36.8,25.29c-31.13,23.53-60.67,49.16-88.48,76.54
				c-2.14,1.94-5.42,4.66-8.33,2.55c-3.82-3.44-7.17-7.4-11.13-10.7c-19.28-16.82-39.39-32.68-59.85-48.05
				c-28.13-20.81-58.24-38.93-89.43-54.76c-34.96-17.35-71.9-31.29-110.43-38.11c-20.51-3.49-41.49-5.15-62.23-2.82
				C189.218,530.93,185.958,532.93,182.678,534.59z M749.428,618.03c1.44,2.75,4.09,4.49,6.94,5.54
				c22.09,7.55,43.19,18.85,60.4,34.77c5.22-8.95,10.5-17.89,14.91-27.28c-19.24-6.75-39.13-12.23-59.56-13.54
				C764.558,617.16,756.888,616.38,749.428,618.03z M616.028,659.22c12.62,20.43,24.78,41.15,36.82,61.92
				c8.05,14.41,16.64,28.56,23.38,43.66c6.46,0.69,13.03,0.32,19.44,1.58c-11.69-21.79-23.86-43.33-36.3-64.7
				c-10.36-17.13-20.19-34.67-32.16-50.75C623.278,653.42,619.498,656.12,616.028,659.22z M705.968,678.1
				c0.41,16.69,1.64,33.36,1.83,50.06c0.65,13.95,0.54,27.96,1.17,41.9c2.37,0.64,4.8,0.99,7.22,1.46
				c20.14-15.68,38.73-33.34,55.61-52.48C750.378,704.58,728.638,690.55,705.968,678.1z M778.688,735.73
				c-12.42,13.89-26.13,26.56-40.1,38.87c23.63,5.49,47.33,10.68,70.95,16.18C799.508,772.29,789.048,754.03,778.688,735.73z
				 M132.748,749.05c-9.13,17.22-18.73,34.18-27.91,51.38c22.4-5.58,44.87-10.89,67.26-16.5
				C158.318,773.07,145.328,761.27,132.748,749.05z M111.088,818.11c16.97,42.25,33.78,84.56,50.5,126.91
				c20.42-7.55,41.34-13.68,62.45-19c39.47-10.11,79.66-17.26,120.09-22.25c139.91-16.89,283.23-5.27,418.53,34.2
				c7.75-22.01,15.37-44.05,23.07-66.07c7.17-20.92,14.87-41.66,21.95-62.6c-55.37-15.29-112.16-25.01-169.2-31.41
				C462.188,758.69,282.498,772.94,111.088,818.11z"/>
		</g>
		<path fill="#FAF904" d="M266.708,140.68c2.3,4.64,3.57,9.7,5.44,14.52c7.27,21.25,15.13,42.3,22.24,63.61
			c14.54,0.72,29.09,0.66,43.63,1.18c13.27,0.68,26.56,0.63,39.84,1.13c-22.07,16.9-44.09,33.87-66.14,50.78
			c8.02,26.55,15.79,53.19,23.73,79.76c-15.7-10.62-31.21-21.51-46.85-32.22c-7.25-4.96-14.62-9.78-21.63-15.08
			c-12.75,8.84-25.46,17.73-38.34,26.37c-10.13,6.88-19.99,14.17-30.26,20.84c7.52-26.75,15.79-53.29,23.57-79.97
			c-22.36-16.38-43.91-33.84-66.14-50.39c27.74-0.98,55.49-1.51,83.23-2.32C248.238,192.81,257.468,166.75,266.708,140.68z"/>
		<path fill="#FAF904" d="M577.308,234.4c7.07-7.05,15.39-12.65,22.62-19.52c8.2,19.35,15.16,39.19,22.25,58.97
			c5.69,16.96,11.77,33.81,16.9,50.96c1.42-0.41,2.85-0.81,4.29-1.21c2.24,1.73,4.26,3.77,5.58,6.31
			c-21.23,17.67-42.03,36.05-59.92,57.16c-2.84,3.44-5.57,6.99-8.99,9.88c-4.98-4.03-8.16-9.69-12.54-14.28
			c-15.73-17.27-32.38-33.7-49.67-49.4c-2.2-2.24-5.52-3.95-6.28-7.16c0.55-3.9,3.15-7.04,5.11-10.33
			C534.428,287,552.868,258.08,577.308,234.4z"/>
		<path fill="#FAF904" d="M326.818,789.67c2.5-1.12,5.05-2.16,7.61-3.12c0.09,5.71-2.19,11.73-7.17,14.87
			c-6.55,4.75-15.07,1.84-22.36,0.98c-1.25,1.48-1.66,3.44-2.38,5.2c-2.08,1.1-4.16,2.22-6.24,3.31c-1.32-5.76-0.37-13.1,5.15-16.37
			c7.04-3.91,15.09-0.52,22.59-0.75C326.278,794.03,326.058,791.1,326.818,789.67z"/>
		<path fill="#FAF904" d="M539.098,791.11c5.31,0.25,10.66,0.18,15.94,0.81c2.77,3.98,4.99,8.32,7.4,12.53
			c-4-0.28-8.05-0.21-11.98-0.99C546.208,799.81,542.878,795.22,539.098,791.11z"/>
		<path fill="#FAF904" d="M280.468,804.36c3.59-0.89,7.19-1.77,10.78-2.67c-0.32,5.34-1.16,11.41-5.61,15
			c-6.55,5.11-16.18,6.49-23.57,2.37c-3.82-1.89-6.59-5.23-8.97-8.66c4.11-1.22,8.34-2.01,12.51-2.97c1.67,2.54,4.03,5.19,7.45,4.52
			C277.408,812.21,280.138,808.31,280.468,804.36z"/>
		<path fill="#FAF904" d="M457.118,805.18c7.94-3.11,16.67-3.25,25.06-2.5c6.38,0.64,13,2.98,17.16,8.1
			c2.88,3.49,3.19,8.23,3.57,12.55c-6.47-0.02-12.93,0.19-19.4,0.18c-0.33-8.83-12.75-10.62-17.85-4.82
			c-1.6,1.84-1.51,4.75,0.35,6.39c4.05,3.78,9.87,4.2,15.02,5.44c7.09,1.66,15.08,2.64,20.3,8.29c4.9,4.98,5.34,12.78,3.44,19.18
			c-1.68,5.4-6.41,9.16-11.38,11.45c-9.1,4.19-19.5,4.56-29.29,3.18c-6.09-0.98-12.51-3.08-16.54-8.03
			c-3.32-3.88-4.21-9.11-4.57-14.03c6.53-0.02,13.07-0.24,19.61-0.29c0.59,2.51,1.15,5.33,3.32,7.01c4.25,3.5,10.45,2.97,15.25,1.02
			c3.46-1.33,5.12-6.05,2.66-8.98c-3.56-3.81-9.13-4.16-13.88-5.42c-7.61-1.89-16.05-3.15-21.91-8.85c-4.73-4.61-4.99-12.02-3.18-18
			C446.538,811.25,451.788,807.41,457.118,805.18z"/>
		<path fill="#FAF904" d="M382.038,808.03c5.89-0.69,11.77-1.48,17.66-2.17c2.65,22.78,6.04,45.49,8.41,68.29
			c-9.3,0.8-18.57,2.03-27.88,2.66c-8.44-15.25-17.51-30.14-26.16-45.27c1.34,16.02,3.25,31.98,4.76,47.98
			c-6.23,0.67-12.47,1.3-18.66,2.23c-2.23-22.67-3.94-45.4-5.75-68.1c7.92-0.96,15.84-1.89,23.75-2.91
			c8.77,13.63,17.72,27.15,26.5,40.78c0.96,1.51,2.18,2.82,3.48,4.06c0.29-4.22-0.64-8.37-1.16-12.52
			C385.358,831.38,383.758,819.69,382.038,808.03z"/>
		<g>
			<path fill="#FAF904" d="M538.308,808.55c7.65,0.2,15.23,1.39,22.89,1.57c7.58,23.26,14.78,46.64,22.13,69.98
				c-6.71-0.41-13.39-1.23-20.11-1.52c-2.2-4.66-4.19-9.43-6.32-14.12c-8.23-0.36-16.43-1.15-24.65-1.75
				c-1.83,4.15-4.05,8.11-6.13,12.15c-6.27-0.63-12.57-0.92-18.83-1.56c-0.79-1.12,0.29-2.2,0.66-3.22
				c7.53-14.59,14.53-29.45,21.95-44.1C532.688,820.17,535.818,814.5,538.308,808.55z M537.718,848.99
				c5.65,0.47,11.31,0.82,16.94,1.57c-1.77-8.7-4.17-17.25-5.98-25.94C544.678,832.58,541.318,840.85,537.718,848.99z"/>
		</g>
		<path fill="#FAF904" d="M596.068,880.56c2.19-22.69,5.32-45.29,7.82-67.95c9.12,1.04,18.29,1.83,27.36,3.23
			c3.67,10.69,6.71,21.6,10.32,32.31c1.93,5.63,3.15,11.53,5.88,16.85c1.37-2.4,1.23-5.23,1.53-7.87
			c1.19-13.34,2.39-26.67,3.46-40.02c6.04,0.53,12.02,1.57,18.06,2.11c-2.18,22.79-4.84,45.53-7.11,68.31
			c-8.41-1.01-16.84-1.79-25.29-2.39c-5.65-16.87-11.63-33.65-17.6-50.42c-2.34,15.84-4.29,31.72-6.54,47.57
			C608.008,881.6,602.038,881.04,596.068,880.56z"/>
		<g>
			<path fill="#FAF904" d="M265.398,827.53c7.89-1.58,15.76-3.22,23.65-4.8c14.33,19.83,28.61,39.68,42.71,59.67
				c-7.15,1.63-14.34,3.04-21.49,4.65c-2.58-3.98-5.25-7.88-7.64-11.96c-8.86,1.81-17.61,4.1-26.47,5.9
				c-0.19,4.64-0.56,9.28-0.66,13.94c-6.61,1.49-13.24,2.88-19.91,4.08C259.088,875.21,262.218,851.36,265.398,827.53z
				 M279.748,841.42c-0.77,8.64-2.07,17.24-2.48,25.91c5.52-1.65,11.14-3,16.6-4.84c0-0.26,0.01-0.8,0.01-1.07
				c-4.17-6.9-9.06-13.34-13.35-20.17C280.338,841.3,279.948,841.38,279.748,841.42z"/>
		</g>
		<path fill="#FAF904" d="M695.978,830.9c9.52-5.14,20.9-3.88,30.99-1.24c7.32,1.98,14.94,4.52,20.48,9.94
			c4.11,4.23,3.38,10.57,2.56,15.9c-5.86-0.88-11.74-1.56-17.61-2.36c0.17-3.54-1.19-7.26-4.53-8.89
			c-5.8-3.02-13.59-4.61-19.27-0.51c-6.21,4.85-9.25,12.65-10.34,20.24c-1.09,6.88,1.79,14.36,7.61,18.32
			c5.45,4.05,12.51,4.47,19.04,4.92c0.74-4.4,2.45-8.66,2.62-13.11c-3.65-2.77-8.55-1.51-12.78-1.88c0-3.64,0.05-7.28,0.1-10.9
			c11.03,0.63,22.02,1.78,33.05,2.51c-0.79,12.95-3.17,25.74-6.71,38.21c-12.21-0.95-24.51-1.77-36.44-4.67
			c-10.15-2.59-19.76-9.13-24.08-18.92C673.158,861.8,680.318,840.15,695.978,830.9z"/>
		<path fill="#FAF904" d="M204.828,841.73c7.26-1.68,15.48-2.27,22.21,1.48c4.77,2.66,6.62,8.12,8.26,12.99
			c-6.33,1.21-12.61,2.79-19.01,3.58c-1.51-1.8-2.73-4.2-5.28-4.63c-5.23-1.15-12.21,1.32-13.52,7.02
			c-0.46,3.66,3.38,5.59,6.45,5.92c9.79,1.26,19.84-2.19,29.49,0.48c9.61,3.42,12.39,15.34,10.4,24.36
			c-2.35,9.21-11.62,14.11-19.88,17.1c-9.39,3.07-20.35,5.44-29.58,0.7c-5.56-2.8-7.88-8.9-10.12-14.29
			c6.48-1.12,12.93-2.47,19.45-3.3c1.56,2.74,4.12,4.98,7.33,5.47c4.48,0.57,9.07-1.21,12.54-3.98c2.66-2.01,3.23-6.48,0.71-8.81
			c-1.97-1.8-4.79-2-7.31-2.17c-8.47-0.26-17.01,1.22-25.43-0.25c-4.22-0.97-8.66-2.89-11.03-6.7c-3.47-6.18-4.49-14.37-0.33-20.49
			C185.818,848.06,195.508,843.99,204.828,841.73z"/>
	</g>
	<path fill="#FAF904" d="M330.698,20.99c7.25-2.57,14.82-4.39,22.41-5.61c-2.68,0.57-5.26,1.54-7.97,1.97
		c-6.13,0.97-11.88,3.48-17.95,4.72c-2.48,1.94-5.7,1.73-8.57,2.59c0.41-0.28,1.23-0.83,1.64-1.1c1.22-0.16,2.44-0.33,3.66-0.51
		c0.82-0.42,1.62-0.91,2.4-1.44C327.768,21.39,329.228,21.19,330.698,20.99z"/>
	<path fill="#FAF904" d="M590.188,27.38c0.63-0.01,1.89-0.03,2.52-0.04c1.11,0.54,2.07,1.42,3.33,1.69
		c6.09,1.7,11.91,4.21,17.62,6.91c-6.88-1.57-12.84-5.94-19.93-6.87c-0.5-0.32-1.52-0.96-2.02-1.28
		C591.328,27.68,590.568,27.48,590.188,27.38z"/>
	<path fill="#FAF904" d="M614.008,36.1c12.29,3.12,22.98,10.17,34.85,14.41c6.93,3.98,14.05,7.64,20.84,11.88
		c-3.68-1.3-6.85-3.6-10.32-5.32c-3.81-2-7.67-3.94-11.12-6.52c-1.76-0.44-3.51-0.93-5.23-1.5c-0.52-0.24-1.56-0.73-2.08-0.97
		c-0.55-0.22-1.67-0.66-2.23-0.87c-0.42-0.34-1.25-1.01-1.67-1.35c-0.96-0.26-1.9-0.52-2.84-0.79c-0.56-0.24-1.68-0.73-2.23-0.98
		c-4.2-1.24-7.58-4.31-11.92-5.2c-0.52-0.2-1.57-0.6-2.1-0.8C616.608,37.49,615.298,36.81,614.008,36.1z"/>
	<path fill="#FAF904" d="M687.798,73.41c3.07,1.48,6.13,3.01,8.93,4.99c6.61,4.77,14.35,8.15,19.65,14.56
		c-7.71-6.25-16.09-11.58-24.5-16.83C690.518,75.22,689.168,74.3,687.798,73.41z"/>
	<path fill="#FAF904" d="M726.968,101.07c2.84,1.79,5.63,3.67,8.18,5.87c3.74,3.27,8.23,5.64,11.58,9.36
		c1.93,1.85,3.76,3.81,5.42,5.91c-2.72-2.36-5.74-4.5-7.7-7.59C738.338,110.49,732.568,105.87,726.968,101.07z"/>
	<path fill="#FAF904" d="M150.228,118.17c6.22-4.27,11.4-9.86,17.71-14.03c-0.91,0.99-1.76,2.03-2.61,3.06
		c-0.55,0.2-1.66,0.59-2.22,0.79c-3.86,4.96-9.45,8.05-14.02,12.25C149.368,119.72,149.938,118.69,150.228,118.17z"/>
	<path fill="#FAF904" d="M752.948,123c7.02,4.57,12.4,11.04,17.8,17.33c-4.03-3.53-7.65-7.48-11.16-11.51
		C756.998,127.35,754.958,125.16,752.948,123z"/>
	<path fill="#FAF904" d="M780.798,151.02c3.44,2.62,6.07,6.08,9.13,9.11c4.18,4,6.59,9.41,10.61,13.55c2,2.04,3.95,4.19,5.09,6.86
		c-4.91-5.84-10.38-11.33-13.97-18.14c-0.44-0.22-1.31-0.66-1.75-0.89C787.008,157.9,783.768,154.58,780.798,151.02z"/>
	<path fill="#097F0F" d="M475.588,168.51c0.89-3.77,1.36-7.89,4.06-10.89c0.64,1.88,0.78,4.1,2.3,5.56
		c4.44,4.6,9.82,8.14,14.67,12.28c14.06,11.9,26.94,25.14,39.45,38.65c6.63,7.06,13.04,14.35,19.08,21.92
		c0.81,0.95,1.62,1.98,2.79,2.52c2.9,0.51,4.77-2.22,6.67-3.92c6.85-7.45,14.48-14.11,21.65-21.24c3.02-2.79,4.79-7.2,9.01-8.45
		c1.84,3.17,3.29,6.54,4.66,9.94c-7.23,6.87-15.55,12.47-22.62,19.52c-24.44,23.68-42.88,52.6-60.65,81.38
		c-1.96,3.29-4.56,6.43-5.11,10.33c0.76,3.21,4.08,4.92,6.28,7.16c17.29,15.7,33.94,32.13,49.67,49.4
		c4.38,4.59,7.56,10.25,12.54,14.28c3.42-2.89,6.15-6.44,8.99-9.88c17.89-21.11,38.69-39.49,59.92-57.16
		c1.67,4.01,2.66,8.26,3.76,12.46c-2.94,3.29-6.97,5.26-10.23,8.18c-24.66,20.25-45.65,44.54-65.33,69.54
		c-14.6,18.62-28.36,37.89-41.53,57.55c-7.36,10.7-14,21.87-21.43,32.52c29.96,30.92,55.92,65.39,82.54,99.15
		c-3.55,2.63-7.24,5.06-10.89,7.53c-9.2-13.73-20.17-26.15-30.56-38.97c-15.67-18.65-31.57-37.1-48.07-55.01
		c-21.37-23.66-45.32-44.8-69.59-65.4c-9.7-8.03-19.28-16.21-29.51-23.56c-2.24-1.75-4.66-3.44-6.19-5.88
		c-0.8-2.94,0.04-6.03,0.17-9c0.64-4.82,0.45-9.92,2.69-14.36c3.44,10.23,12.71,16.44,20.57,23.09
		c24.89,18.81,47.51,40.42,69.73,62.26c2.9,2.57,5.04,6.42,8.99,7.49c1.25-0.43,1.99-1.58,2.76-2.58
		c15.96-26.08,35.25-49.91,54.8-73.35c2.67-3.39,5.8-6.56,7.58-10.55c1.61-3.12-1.7-5.68-3.32-7.97
		c-17.95-20.61-36.74-40.48-56.11-59.75c-19.95-18.04-41.66-34.09-64.39-48.46c-3.79-2.66-8.13-4.91-10.77-8.85
		c0.66-5.8,2.57-11.55,4.24-17.18c2.07,2.83,2.8,6.52,5.53,8.88c5.99,6.66,14.22,10.46,21.34,15.69
		c8.92,6.36,17.94,12.63,26.25,19.79c2.49,2.02,4.75,4.85,8.11,5.32c3.56-1.92,5-5.99,7.18-9.16c11.08-17.63,23.04-34.7,35.63-51.28
		c2.83-3.57,7.81-7.97,5.15-12.93c-8.71-11.55-16.84-23.67-27.31-33.76c-12.57-12.55-26.58-23.52-40.54-34.45
		C477.738,174.87,474.588,172.09,475.588,168.51z"/>
	<path fill="#FAF904" d="M806.098,181.1c3.87,3.63,6.04,8.58,9.49,12.55c4.8,6.29,8.9,13.08,13.25,19.68
		c13.7,22.8,26.17,46.45,35.69,71.32c3.94,9.4,7.55,18.96,10.15,28.83c2.17,5.95,2.83,12.4,5.71,18.08c1.46,2.61,1.1,5.71,1.23,8.58
		c0.36,0.38,1.09,1.13,1.45,1.51c0.55,5.3,2.33,10.39,2.56,15.74c-1.7-8.08-4.74-15.97-5.07-24.27c-2.27-2.83-2.78-6.49-3.58-9.9
		c-3.54-12.15-7.19-24.27-12.08-35.95c-2.5-5.48-4.1-11.34-7-16.62c-8.46-20.89-20.07-40.3-31.18-59.85
		c-1.72-1.59-2.95-3.58-3.81-5.74C817.258,197.11,811.338,189.35,806.098,181.1z"/>
	<path fill="#FAF904" d="M82.298,194.5c3.07-2.75,5.47-6.13,7.97-9.39c-2.15,3.62-4.28,7.46-7.82,9.91c-0.34,1.3-0.67,2.6-0.99,3.9
		c-2.84,3.05-4.83,6.73-7.35,10.03C76.148,203.72,80.578,199.88,82.298,194.5z"/>
	<path fill="#FAF904" d="M59.728,231.49c3-4.23,4.89-9.15,8.15-13.19c-1.7,3.35-3.54,6.63-5.17,10.01
		c-3.19,4.62-5.65,9.68-8.2,14.66c-0.65,1.56-1.32,3.16-2.78,4.16c-0.35,1.23-0.68,2.47-1.06,3.7c-0.17-1.66-0.52-3.29-0.87-4.91
		c1.01-0.26,1.98-0.61,2.92-1.07C55.388,240.6,56.828,235.65,59.728,231.49z"/>
	<path fill="#FAF904" d="M38.458,275.72c0.38-0.99,0.74-1.98,1.16-2.95c-0.2,1.43-0.37,2.87-0.54,4.31
		c-3.49,5.48-4.88,11.91-7.25,17.87c-2.15,4.53-3.67,9.32-4.96,14.15c-1.02,2.28-1.84,4.64-2.59,7.02c0.44-2.36,0.65-4.76,1.01-7.13
		c2.91-2.95,3.22-7.41,4.57-11.14c1.25-5.43,4.22-10.21,5.85-15.51C36.458,280.07,37.128,277.73,38.458,275.72z"/>
	<path fill="#FAF904" d="M886.378,523.1c2.96-17.3,5.3-34.72,6.77-52.21c0.55,8.82-1.96,17.43-1.89,26.24
		c-2.12,11.81-3.89,23.69-6,35.5c-0.26,0.38-0.77,1.13-1.02,1.5c-0.31,5.2-1.73,10.23-3.15,15.22c-0.22,0.15-0.66,0.46-0.88,0.62
		c1.52-5.11,3.07-10.26,3.17-15.64C885.498,530.96,885.338,526.83,886.378,523.1z"/>
	<path fill="#FAF904" d="M9.358,500.97c2.51,23.15,8.48,45.71,14.54,68.12c-2-5.65-3.35-11.5-5.26-17.17
		c-1.25-7.02-2.93-13.93-4.84-20.79C12.198,521.1,9.358,511.17,9.358,500.97z"/>
	<path fill="#097F0F" d="M182.678,534.59c3.28-1.66,6.54-3.66,10.28-4.03c20.74-2.33,41.72-0.67,62.23,2.82
		c38.53,6.82,75.47,20.76,110.43,38.11c31.19,15.83,61.3,33.95,89.43,54.76c20.46,15.37,40.57,31.23,59.85,48.05
		c3.96,3.3,7.31,7.26,11.13,10.7c2.91,2.11,6.19-0.61,8.33-2.55c27.81-27.38,57.35-53.01,88.48-76.54
		c11.92-8.92,24.1-17.51,36.8-25.29c9.44-6.04,19.47-11.08,29.18-16.67c7.35-3.9,14.65-8.5,23.07-9.62
		c20.68-3.4,41.95-3.91,62.69-0.68c18.09,3.13,35.99,7.32,53.67,12.22c10.02,3.06,20.21,5.91,29.48,10.89
		c-5.63,13.72-11.14,27.48-16.79,41.2c-16.63-5.17-33.65-9.07-50.86-11.72c-15.9-2.39-32.08-3.59-48.1-1.85
		c-14.88,1.55-29.71,3.86-44.22,7.5c-2.5,0.46-4.55,1.96-6.08,3.94c2.29,1.31,4.77,2.29,7.38,2.75
		c20.89,3.79,41.66,8.66,61.63,15.92c19.37,7.03,38.29,16.36,53.53,30.47c-9.83,14.97-19.2,30.32-30.66,44.14
		c-25.45-17.43-51.85-33.54-79.51-47.22c-14.39-7.05-29.14-13.47-44.49-18.14c-10.67-3.18-21.33-7.34-32.6-7.45
		c-3.23-0.16-6.33,1-8.89,2.92c-17.38,12.04-34.4,24.66-50.61,38.25c-8.3,7.01-16.24,14.5-23.33,22.73
		c-2.37,2.33-0.74,5.57,0.79,7.86c10.62,14.92,21.24,30.03,29.16,46.59c-8.93-0.64-17.88-1-26.81-1.51
		c-9.11-16.42-20.24-31.66-32.29-46.03c-19.82-23.22-43.44-44.09-71.72-56.28c-19.46-8.47-41.06-11.49-62.16-9.95
		c-20.68,1.62-40.74,8.42-58.78,18.54c-16.03,8.69-29.89,20.65-44.29,31.69c-19.12,15.1-38.57,29.82-56.85,45.94
		c4.81-18.73,12.19-36.87,23.01-52.96c20.82-31.43,49.32-56.85,78.93-79.78c3.6-3.09,8.38-5.29,10.14-10
		c-1.8-1.54-3.84-2.92-6.25-3.18c-8.27-1.28-16.67-0.71-25-0.68c-23.22,0.14-46.41,4.33-68.21,12.35
		c-14.27,5.03-27.95,11.58-41.24,18.77c-14.65,7.9-30.15,14.49-43.4,24.7c6.24-13.87,15.46-26.14,25.47-37.5
		c12.05-13.4,25.83-25.27,41-35.02c3.92-2.53,7.69-5.28,11.48-8c-1.22-2.3-2.41-4.98-5.06-5.9c-3.2-1.63-6.95-0.52-9.66,1.53
		c-7.72,5.65-15.43,11.31-23.13,16.98c-3.22,2.59-7.51,2.59-11.4,3.14c-23.37,2.96-46.7,6.18-70.08,9.08
		c10.4-11.88,22.65-21.96,35.21-31.43C155.578,549.98,168.818,541.68,182.678,534.59z"/>
	<path fill="#FAF904" d="M879.838,551.81c-0.1,5.49-2.16,10.61-3.43,15.88c-1.73,5.3-4.27,10.34-5.11,15.91
		c-4.36,11.8-9.19,23.42-13.98,35.05c-4.45,10.26-10.04,19.97-14.78,30.1c-2.92,5.31-5.99,10.54-9.36,15.58
		c-4.38,6.67-7.29,14.25-12.54,20.34c-6.37,9.56-12.95,19-20.45,27.72c-4.16,4.66-7.23,10.32-12.28,14.14
		c-1.95,4.49,1.31,8.47,3.98,11.77c2.54,3.9,3.72,8.55,6.4,12.4c3.16,4.99,5.25,10.57,8.69,15.39c4.64,7.53,8.09,15.73,12.84,23.21
		c2.19,4.35,5.51,8.72,4.77,13.88c-0.06,4.77-3.46,8.5-4.72,12.93c-2.41,7.78-6,15.12-8.26,22.95c-1.56,5.19-3.47,10.27-5.48,15.3
		c-4.47,10.69-7.75,21.81-11.63,32.71c-2.55,7.04-5.73,13.85-7.63,21.12c-2.24,8.27-6.14,15.97-8.74,24.12
		c-1.7,7.45-5.21,14.3-7.36,21.62c-1.04,2.29-1.5,5.46-4.04,6.57c-6.1-1.05-12.04-3.1-17.57-5.85c-3.11-1.62-6.64-1.83-10.06-2.04
		c-3.79-3.37-9.04-3.61-13.65-5.14c-10.35-3.1-20.83-5.7-31.18-8.79c-5.41-1.36-11.03-1.76-16.32-3.61
		c-0.51-0.24-1.51-0.73-2.01-0.98c-3.13-0.54-6.32-0.73-9.37-1.64c-4.27-1.33-8.87-1.07-13.03-2.76c4.71,0.92,9.57,0.99,14.21,2.35
		c3.98,1.3,8.37,0.66,12.17,2.64c5.7,2.48,12.09,2.1,17.88,4.27c8.09,2.69,16.44,4.43,24.57,7c5.59,1.7,11.58,2.48,16.63,5.6
		c3.32,1.27,7.16,0.68,10.38,2.4c4.67,2.4,9.7,4.05,14.79,5.32c1.45,0.54,3.56,0.53,4.17-1.24c2.47-5.47,3.91-11.34,6.23-16.87
		c1.79-4.08,2.25-8.59,4.16-12.62c2.21-4.99,3.46-10.39,6.18-15.15c2.43-11.54,7.59-22.24,11.36-33.36
		c3.52-10.66,7.17-21.29,11.45-31.67c2.56-6.59,4.13-13.53,6.93-20.03c2.65-6.19,4.36-12.72,7.24-18.81
		c1.46-3.19,2.48-6.78,2.18-10.29c-3.13-7.76-8.48-14.38-11.47-22.19c-3.45-4.64-5.4-10.16-8.83-14.83
		c-3.67-8.05-9.64-15.02-11.79-23.74c-0.56-0.17-1.7-0.53-2.27-0.7c-1.22-2.74-2.54-5.43-3.69-8.19c0.56-1.35,1.1-2.71,1.66-4.05
		c0.44-0.19,1.34-0.55,1.78-0.73c11.2-14.2,22.96-27.99,32.49-43.41c1.1-1.05,2.33-2.06,2.93-3.51c2.47-5.6,5.89-10.7,8.76-16.09
		c4.78-5.71,7.49-12.75,11.1-19.19c9.95-18.29,17.88-37.57,24.99-57.1c1.88-3.25,1.92-7.12,3.28-10.57
		C876.128,567.51,878.338,559.71,879.838,551.81z"/>
	<path fill="#FAF904" d="M44.228,622.02c3.84,8.66,8.44,16.91,12.61,25.41C51.728,639.44,47.488,630.93,44.228,622.02z"/>
	<path fill="#FAF904" d="M57.158,648c2.02,3.25,3.94,6.57,5.75,9.95c1.53,2.86,2.36,6.18,4.66,8.58c1.91,2.01,2.92,4.63,4.19,7.05
		C65.508,665.91,61.308,656.91,57.158,648z"/>
	<path fill="#097F0F" d="M616.028,659.22c3.47-3.1,7.25-5.8,11.18-8.29c11.97,16.08,21.8,33.62,32.16,50.75
		c12.44,21.37,24.61,42.91,36.3,64.7c-6.41-1.26-12.98-0.89-19.44-1.58c-6.74-15.1-15.33-29.25-23.38-43.66
		C640.808,700.37,628.648,679.65,616.028,659.22z"/>
	<path fill="#FAF904" d="M75.188,678.81c3.2,3.97,6.27,8.1,8.55,12.69c0.23,0.33,0.71,0.98,0.95,1.31
		c-0.28-0.31-0.83-0.93-1.11-1.24C80.458,687.54,77.778,683.19,75.188,678.81z"/>
	<path fill="#FAF904" d="M85.028,693.2c5.65,6.23,10.25,13.32,14.94,20.29c-0.37-0.33-1.11-0.98-1.48-1.31
		C94.188,705.72,88.998,699.87,85.028,693.2z"/>
	<path fill="#FAF904" d="M107.848,722.32c3.63,3.07,6.02,7.26,9.35,10.62c2.08,1.97,3.11,4.68,3.39,7.5
		c-0.69,0.73-1.37,1.46-2.05,2.21c-2.59,7.1-5.81,13.96-9.12,20.74c1.24-5.36,4.41-9.96,6.27-15.09c1.23-3.46,3.44-6.59,4.1-10.22
		C116.788,732.17,111.198,728.06,107.848,722.32z"/>
	<path fill="#097F0F" d="M778.688,735.73c10.36,18.3,20.82,36.56,30.85,55.05c-23.62-5.5-47.32-10.69-70.95-16.18
		C752.558,762.29,766.268,749.62,778.688,735.73z"/>
	<path fill="#097F0F" d="M132.748,749.05c12.58,12.22,25.57,24.02,39.35,34.88c-22.39,5.61-44.86,10.92-67.26,16.5
		C114.018,783.23,123.618,766.27,132.748,749.05z"/>
	<path fill="#FAF904" d="M105.128,770.98c0.88-2.17,2.28-4.04,3.54-5.97c-0.65,1.4-1.39,2.75-2.17,4.09
		c-0.22,0.97-0.44,1.95-0.66,2.94c-4.8,8.92-8.92,18.15-12.9,27.46c-0.41,0.33-1.23,0.99-1.64,1.32c-0.12,0.98-0.25,1.98-0.37,3
		c-1.01,2.16-1.72,4.53-1.01,6.92c-1.76-3.63-0.27-7.39,0.97-10.89c0.43-0.16,1.29-0.47,1.72-0.63
		C96.158,789.53,101.368,780.57,105.128,770.98z"/>
	<g>
		<path fill="#097F0F" d="M111.088,818.11c171.41-45.17,351.1-59.42,527.39-40.22c57.04,6.4,113.83,16.12,169.2,31.41
			c-7.08,20.94-14.78,41.68-21.95,62.6c-7.7,22.02-15.32,44.06-23.07,66.07c-135.3-39.47-278.62-51.09-418.53-34.2
			c-40.43,4.99-80.62,12.14-120.09,22.25c-21.11,5.32-42.03,11.45-62.45,19C144.868,902.67,128.058,860.36,111.088,818.11z
			 M326.818,789.67c-0.76,1.43-0.54,4.36-2.8,4.12c-7.5,0.23-15.55-3.16-22.59,0.75c-5.52,3.27-6.47,10.61-5.15,16.37
			c2.08-1.09,4.16-2.21,6.24-3.31c0.72-1.76,1.13-3.72,2.38-5.2c7.29,0.86,15.81,3.77,22.36-0.98c4.98-3.14,7.26-9.16,7.17-14.87
			C331.868,787.51,329.318,788.55,326.818,789.67z M539.098,791.11c3.78,4.11,7.11,8.7,11.36,12.35c3.93,0.78,7.98,0.71,11.98,0.99
			c-2.41-4.21-4.63-8.55-7.4-12.53C549.758,791.29,544.408,791.36,539.098,791.11z M280.468,804.36c-0.33,3.95-3.06,7.85-7.41,7.59
			c-3.42,0.67-5.78-1.98-7.45-4.52c-4.17,0.96-8.4,1.75-12.51,2.97c2.38,3.43,5.15,6.77,8.97,8.66c7.39,4.12,17.02,2.74,23.57-2.37
			c4.45-3.59,5.29-9.66,5.61-15C287.658,802.59,284.058,803.47,280.468,804.36z M457.118,805.18c-5.33,2.23-10.58,6.07-12.26,11.87
			c-1.81,5.98-1.55,13.39,3.18,18c5.86,5.7,14.3,6.96,21.91,8.85c4.75,1.26,10.32,1.61,13.88,5.42c2.46,2.93,0.8,7.65-2.66,8.98
			c-4.8,1.95-11,2.48-15.25-1.02c-2.17-1.68-2.73-4.5-3.32-7.01c-6.54,0.05-13.08,0.27-19.61,0.29c0.36,4.92,1.25,10.15,4.57,14.03
			c4.03,4.95,10.45,7.05,16.54,8.03c9.79,1.38,20.19,1.01,29.29-3.18c4.97-2.29,9.7-6.05,11.38-11.45c1.9-6.4,1.46-14.2-3.44-19.18
			c-5.22-5.65-13.21-6.63-20.3-8.29c-5.15-1.24-10.97-1.66-15.02-5.44c-1.86-1.64-1.95-4.55-0.35-6.39
			c5.1-5.8,17.52-4.01,17.85,4.82c6.47,0.01,12.93-0.2,19.4-0.18c-0.38-4.32-0.69-9.06-3.57-12.55c-4.16-5.12-10.78-7.46-17.16-8.1
			C473.788,801.93,465.058,802.07,457.118,805.18z M382.038,808.03c1.72,11.66,3.32,23.35,4.95,35.03c0.52,4.15,1.45,8.3,1.16,12.52
			c-1.3-1.24-2.52-2.55-3.48-4.06c-8.78-13.63-17.73-27.15-26.5-40.78c-7.91,1.02-15.83,1.95-23.75,2.91
			c1.81,22.7,3.52,45.43,5.75,68.1c6.19-0.93,12.43-1.56,18.66-2.23c-1.51-16-3.42-31.96-4.76-47.98
			c8.65,15.13,17.72,30.02,26.16,45.27c9.31-0.63,18.58-1.86,27.88-2.66c-2.37-22.8-5.76-45.51-8.41-68.29
			C393.808,806.55,387.928,807.34,382.038,808.03z M538.308,808.55c-2.49,5.95-5.62,11.62-8.41,17.43
			c-7.42,14.65-14.42,29.51-21.95,44.1c-0.37,1.02-1.45,2.1-0.66,3.22c6.26,0.64,12.56,0.93,18.83,1.56c2.08-4.04,4.3-8,6.13-12.15
			c8.22,0.6,16.42,1.39,24.65,1.75c2.13,4.69,4.12,9.46,6.32,14.12c6.72,0.29,13.4,1.11,20.11,1.52
			c-7.35-23.34-14.55-46.72-22.13-69.98C553.538,809.94,545.958,808.75,538.308,808.55z M596.068,880.56
			c5.97,0.48,11.94,1.04,17.89,1.73c2.25-15.85,4.2-31.73,6.54-47.57c5.97,16.77,11.95,33.55,17.6,50.42
			c8.45,0.6,16.88,1.38,25.29,2.39c2.27-22.78,4.93-45.52,7.11-68.31c-6.04-0.54-12.02-1.58-18.06-2.11
			c-1.07,13.35-2.27,26.68-3.46,40.02c-0.3,2.64-0.16,5.47-1.53,7.87c-2.73-5.32-3.95-11.22-5.88-16.85
			c-3.61-10.71-6.65-21.62-10.32-32.31c-9.07-1.4-18.24-2.19-27.36-3.23C601.388,835.27,598.258,857.87,596.068,880.56z
			 M265.398,827.53c-3.18,23.83-6.31,47.68-9.81,71.48c6.67-1.2,13.3-2.59,19.91-4.08c0.1-4.66,0.47-9.3,0.66-13.94
			c8.86-1.8,17.61-4.09,26.47-5.9c2.39,4.08,5.06,7.98,7.64,11.96c7.15-1.61,14.34-3.02,21.49-4.65
			c-14.1-19.99-28.38-39.84-42.71-59.67C281.158,824.31,273.288,825.95,265.398,827.53z M695.978,830.9
			c-15.66,9.25-22.82,30.9-15.31,47.56c4.32,9.79,13.93,16.33,24.08,18.92c11.93,2.9,24.23,3.72,36.44,4.67
			c3.54-12.47,5.92-25.26,6.71-38.21c-11.03-0.73-22.02-1.88-33.05-2.51c-0.05,3.62-0.1,7.26-0.1,10.9
			c4.23,0.37,9.13-0.89,12.78,1.88c-0.17,4.45-1.88,8.71-2.62,13.11c-6.53-0.45-13.59-0.87-19.04-4.92
			c-5.82-3.96-8.7-11.44-7.61-18.32c1.09-7.59,4.13-15.39,10.34-20.24c5.68-4.1,13.47-2.51,19.27,0.51c3.34,1.63,4.7,5.35,4.53,8.89
			c5.87,0.8,11.75,1.48,17.61,2.36c0.82-5.33,1.55-11.67-2.56-15.9c-5.54-5.42-13.16-7.96-20.48-9.94
			C716.878,827.02,705.498,825.76,695.978,830.9z M204.828,841.73c-9.32,2.26-19.01,6.33-24.65,14.48
			c-4.16,6.12-3.14,14.31,0.33,20.49c2.37,3.81,6.81,5.73,11.03,6.7c8.42,1.47,16.96-0.01,25.43,0.25c2.52,0.17,5.34,0.37,7.31,2.17
			c2.52,2.33,1.95,6.8-0.71,8.81c-3.47,2.77-8.06,4.55-12.54,3.98c-3.21-0.49-5.77-2.73-7.33-5.47c-6.52,0.83-12.97,2.18-19.45,3.3
			c2.24,5.39,4.56,11.49,10.12,14.29c9.23,4.74,20.19,2.37,29.58-0.7c8.26-2.99,17.53-7.89,19.88-17.1
			c1.99-9.02-0.79-20.94-10.4-24.36c-9.65-2.67-19.7,0.78-29.49-0.48c-3.07-0.33-6.91-2.26-6.45-5.92c1.31-5.7,8.29-8.17,13.52-7.02
			c2.55,0.43,3.77,2.83,5.28,4.63c6.4-0.79,12.68-2.37,19.01-3.58c-1.64-4.87-3.49-10.33-8.26-12.99
			C220.308,839.46,212.088,840.05,204.828,841.73z"/>
	</g>
	<path fill="#097F0F" d="M537.718,848.99c3.6-8.14,6.96-16.41,10.96-24.37c1.81,8.69,4.21,17.24,5.98,25.94
		C549.028,849.81,543.368,849.46,537.718,848.99z"/>
	<path fill="#097F0F" d="M279.748,841.42c0.2-0.04,0.59-0.12,0.78-0.17c4.29,6.83,9.18,13.27,13.35,20.17
		c0,0.27-0.01,0.81-0.01,1.07c-5.46,1.84-11.08,3.19-16.6,4.84C277.678,858.66,278.978,850.06,279.748,841.42z"/>
	<path fill="#FAF904" d="M437.558,912.97c16.8-0.66,33.64-0.39,50.46-0.42c14.67-0.09,29.33,0.89,44,0.72
		c9.21,2.48,18.9,0.99,28.25,2.61c7.93,1.42,16.11,0.65,23.99,2.4c9.44,1.33,18.88,2.71,28.41,3.23c7.27,2.25,14.95,3.14,22.52,3.98
		c5.8,2.01,12.12,1.84,17.89,4.07c-6.07-1.44-12.56-1.15-18.34-3.69c-7.09-0.32-13.98-2.24-21.06-2.49
		c-0.37-0.47-1.11-1.41-1.48-1.88c-8.81,0.61-17.44-1.47-26.16-2.22c-4.03-0.52-7.92-2.1-12.04-1.77c-5.43,0.2-10.8-0.63-16.12-1.54
		c-7.86-0.94-15.81-0.19-23.69-0.76c-0.56-0.29-1.67-0.89-2.22-1.18c-2.61-0.55-5.27-0.64-7.91-0.56
		c-14.03,0.31-28.07-0.05-42.08-0.68c-17.34-0.14-34.66,0.98-52,0.68c-3.68-0.13-7.34,0.27-10.94,1
		c-9.23,1.79-18.69,0.32-27.96,1.45c-7.68,1.48-15.5,1.67-23.25,2.53c6.54-1.78,13.33-1.72,20.03-2.28c1.66-0.49,3.36-0.9,5.11-0.88
		c8.65,0.04,17.25-1.09,25.91-1.08C424.918,912.28,431.358,913.91,437.558,912.97z"/>
	<path fill="#FAF904" d="M337.998,921.18c5.96-1.01,12.05-0.35,18.01-1.29c-7.51,2.22-15.51,0.63-23.01,2.81
		c-4.71,1.28-9.74,0.21-14.37,1.89c-4.22,1.52-8.83,0.47-13.06,1.88c-3.48,1.18-7.16,1.24-10.79,1.05c-0.75,0.6-1.5,1.21-2.25,1.83
		c-4.28-0.11-8.34,1.27-12.51,1.96c-5.68,0.52-11.11,2.6-16.87,2.52c-5.37,2.45-11.32,3.11-17.06,4.23
		c-5.08,0.88-9.92,2.83-15.04,3.57c-6.77,0.87-13.03,4.29-19.97,4.06c4.68-0.72,9.21-2.09,13.74-3.39c3.97-1.29,8.2-1.4,12.17-2.68
		c8.3-2.48,17.01-3.21,25.27-5.87c9.93-1.48,19.72-3.79,29.66-5.31c0.97-0.49,1.99-0.82,3.05-0.99c6.4-0.29,12.52-2.44,18.95-2.5
		C321.838,923.01,329.998,922.67,337.998,921.18z"/>
	<path fill="#FAF904" d="M138.278,941.91c3.86,7.44,5.2,15.93,9.59,23.12c2.29-1.67,5.09-2.25,7.72-3.14
		c4.82-1.44,9.53-3.41,14.59-3.83c12.69-5.56,26.37-8.35,39.74-11.79c-2.45,1.28-5.09,2.14-7.78,2.72
		c-7.42,1.53-14.71,3.63-21.87,6.09c-10.32,3.74-21.22,5.7-31.34,10.01h-2.02C143.378,957.62,140.728,949.78,138.278,941.91z"/>
	<g>
		<g>
			<path fill="#FB0103" d="M402.118,24.23c85.91-9.71,174.68,7.09,250.88,48.02c60.92,32.55,113.99,79.9,152.55,137.27
				c45.4,66.66,70.76,146.87,71.34,227.55c0.86,44-5.75,88.08-18.87,130.06c-19.3-6.86-38.72-13.39-58.2-19.75
				c-23.18-8.45-48.5-11.03-72.88-7.16c-11,1.48-21.71,4.51-32.27,7.82c-8.23-69.54-20.58-138.88-41.96-205.67
				c-1.1-4.2-2.09-8.45-3.76-12.46c-1.32-2.54-3.34-4.58-5.58-6.31c-1.44,0.4-2.87,0.8-4.29,1.21c-5.13-17.15-11.21-34-16.9-50.96
				c-7.09-19.78-14.05-39.62-22.25-58.97c-1.37-3.4-2.82-6.77-4.66-9.94c-1.25-2.06-2.36-4.3-4.22-5.88
				c-2.03-1.44-4.58-0.2-6.79,0.06c-8.06-18.54-17.65-36.39-26.99-54.32c-8.06-14.75-16.11-29.54-25.41-43.55
				c-3.01-4.25-5.83-8.72-9.79-12.16c-7.67,9.62-13.43,20.59-20.26,30.79c-7.15,11.01-13.86,22.29-20.63,33.52
				c-0.53,0.1-1.59,0.29-2.12,0.38c-6.04,5.36-7.98,13.53-10.62,20.83c-9.29,29.8-17.35,59.98-25.84,90.02
				c-1.82-0.6-4.16-1.44-5.53,0.46c-3.5,4.69-4.87,10.54-6.6,16.04c-5.62,20.2-9.16,40.9-13.09,61.48
				c-3.46,18.58-6.73,37.19-9.27,55.91c-1.35-0.24-2.87-1.75-4.14-0.6c-2.62,1.96-3.79,5.17-4.92,8.12
				c-2.71,7.75-3.79,15.93-5.01,24.01c-6.32,45.29-14.61,90.44-16.26,136.22c-16.05-8.13-32.65-15.1-49.42-21.62
				c-20.73-7.79-41.8-14.78-63.41-19.72c-22.86-5.46-46.39-8.76-69.93-8.05c-8.3,0.04-16,3.45-23.39,6.87
				c-12.24,5.88-23.63,13.37-34.53,21.43c-13.84,10.31-26.86,21.75-38.6,34.41c-1.77,2.11-5.09,4.17-3.99,7.38
				c1.65,5.34,4.92,10.01,7.8,14.76c1.79,3.58,6.47,2.54,9.71,2.26c17.37-2.88,34.78-5.59,52.16-8.43
				c-2.56,4.5-6.04,8.36-9.03,12.56c-8.07,10.91-15.77,22.37-20.72,35.04c0.78,3.76,4.04,6.25,6.57,8.88
				c2.65,2.35,4.79,5.45,8.06,6.97c4.47-0.77,8.18-3.68,11.95-6.01c28.82-19.28,60.33-34.95,93.94-43.83
				c11.52-2.94,23.2-5.44,35.07-6.37c1.98-0.07,3.87,0.67,5.76,1.17c-1.1,2.44-2.9,4.46-5.18,5.87
				c-13.36,8.96-24.65,20.57-35.53,32.33c-13.85,15.5-26.37,32.27-36.63,50.38c-3.22,5.54-5.09,11.69-7.28,17.68
				c-2.71,8.07-6.08,16.25-6.29,24.84c3.28,5.86,9.93,8.88,15.92,11.3c3.23,1.65,6.4-0.8,9.03-2.48
				c9.26-6.64,17.22-14.85,25.55-22.57c12.11-10.36,24.83-19.99,37.71-29.37c17.18-11.95,34.89-23.44,54.27-31.5
				c8.22-3.51,16.97-5.82,25.91-6.4c-0.56,24.35-0.47,48.71-0.46,73.07c-0.05,9.66,0.29,19.32,0.99,28.96
				c-25.67,1.25-51.21,4.44-76.7,7.57c-24.3,2.92-48.45,6.92-72.56,11.07c-9.93,1.88-19.91,3.56-29.74,5.9
				c-59.86-43.85-108.29-103.39-137.99-171.46c-16.92-38.33-27.79-79.32-32.35-120.96c-8.64-77.46,4.87-157.39,39.32-227.36
				c31.53-65.24,80.62-121.65,140.14-162.87C262.468,57.42,331.258,31.69,402.118,24.23z M266.708,140.68
				c-9.24,26.07-18.47,52.13-27.68,78.21c-27.74,0.81-55.49,1.34-83.23,2.32c22.23,16.55,43.78,34.01,66.14,50.39
				c-7.78,26.68-16.05,53.22-23.57,79.97c10.27-6.67,20.13-13.96,30.26-20.84c12.88-8.64,25.59-17.53,38.34-26.37
				c7.01,5.3,14.38,10.12,21.63,15.08c15.64,10.71,31.15,21.6,46.85,32.22c-7.94-26.57-15.71-53.21-23.73-79.76
				c22.05-16.91,44.07-33.88,66.14-50.78c-13.28-0.5-26.57-0.45-39.84-1.13c-14.54-0.52-29.09-0.46-43.63-1.18
				c-7.11-21.31-14.97-42.36-22.24-63.61C270.278,150.38,269.008,145.32,266.708,140.68z"/>
		</g>
		<path fill="#FB0103" d="M749.428,618.03c7.46-1.65,15.13-0.87,22.69-0.51c20.43,1.31,40.32,6.79,59.56,13.54
			c-4.41,9.39-9.69,18.33-14.91,27.28c-17.21-15.92-38.31-27.22-60.4-34.77C753.518,622.52,750.868,620.78,749.428,618.03z"/>
		<path fill="#FB0103" d="M705.968,678.1c22.67,12.45,44.41,26.48,65.83,40.94c-16.88,19.14-35.47,36.8-55.61,52.48
			c-2.42-0.47-4.85-0.82-7.22-1.46c-0.63-13.94-0.52-27.95-1.17-41.9C707.608,711.46,706.378,694.79,705.968,678.1z"/>
	</g>
</g>
</svg>
